<mxfile host="app.diagrams.net" modified="2022-06-06T16:20:11.453Z" agent="5.0 (Windows NT 10.0; Win64; x64) AppleWebKit/537.36 (KHTML, like Gecko) Chrome/102.0.0.0 Safari/537.36" etag="47X_Y1sXF40Obg9wtTtn" version="18.1.3" type="github">
  <diagram id="Pl-G2y5A_Y-aIqS6ltRb" name="Page-1">
    <mxGraphModel dx="1020" dy="492" grid="1" gridSize="10" guides="1" tooltips="1" connect="1" arrows="1" fold="1" page="1" pageScale="1" pageWidth="827" pageHeight="1169" math="0" shadow="0">
      <root>
        <mxCell id="0" />
        <mxCell id="1" parent="0" />
        <mxCell id="44Vi0TffqXPqc9Z1R_R8-1" value="" style="whiteSpace=wrap;html=1;fillColor=#fff2cc;strokeColor=#d6b656;" vertex="1" parent="1">
          <mxGeometry x="320" y="80" width="450" height="430" as="geometry" />
        </mxCell>
        <mxCell id="44Vi0TffqXPqc9Z1R_R8-13" style="edgeStyle=orthogonalEdgeStyle;rounded=0;orthogonalLoop=1;jettySize=auto;html=1;entryX=0;entryY=0.5;entryDx=0;entryDy=0;fontFamily=Times New Roman;fontSize=14;" edge="1" parent="1" source="44Vi0TffqXPqc9Z1R_R8-2" target="44Vi0TffqXPqc9Z1R_R8-12">
          <mxGeometry relative="1" as="geometry" />
        </mxCell>
        <mxCell id="44Vi0TffqXPqc9Z1R_R8-33" style="edgeStyle=orthogonalEdgeStyle;rounded=0;orthogonalLoop=1;jettySize=auto;html=1;entryX=0;entryY=0.5;entryDx=0;entryDy=0;fontFamily=Times New Roman;fontSize=14;" edge="1" parent="1" source="44Vi0TffqXPqc9Z1R_R8-2" target="44Vi0TffqXPqc9Z1R_R8-6">
          <mxGeometry relative="1" as="geometry" />
        </mxCell>
        <mxCell id="44Vi0TffqXPqc9Z1R_R8-2" value="&lt;font face=&quot;Times New Roman&quot;&gt;&lt;span style=&quot;font-size: 14px;&quot;&gt;&lt;b&gt;Artiste&lt;/b&gt;&lt;/span&gt;&lt;/font&gt;" style="shape=umlActor;verticalLabelPosition=bottom;verticalAlign=top;html=1;fillColor=#dae8fc;strokeColor=#6c8ebf;strokeWidth=3;" vertex="1" parent="1">
          <mxGeometry x="144" y="245" width="50" height="80" as="geometry" />
        </mxCell>
        <mxCell id="44Vi0TffqXPqc9Z1R_R8-6" value="Gestion des sons et clip" style="ellipse;whiteSpace=wrap;html=1;fontFamily=Times New Roman;fontSize=14;strokeWidth=3;fillColor=#dae8fc;strokeColor=#6c8ebf;" vertex="1" parent="1">
          <mxGeometry x="455" y="95" width="120" height="70" as="geometry" />
        </mxCell>
        <mxCell id="44Vi0TffqXPqc9Z1R_R8-28" style="edgeStyle=orthogonalEdgeStyle;rounded=0;orthogonalLoop=1;jettySize=auto;html=1;exitX=1;exitY=0.5;exitDx=0;exitDy=0;entryX=0;entryY=1;entryDx=0;entryDy=0;dashed=1;fontFamily=Times New Roman;fontSize=14;" edge="1" parent="1" source="44Vi0TffqXPqc9Z1R_R8-12" target="44Vi0TffqXPqc9Z1R_R8-21">
          <mxGeometry relative="1" as="geometry" />
        </mxCell>
        <mxCell id="44Vi0TffqXPqc9Z1R_R8-29" value="&lt;span style=&quot;background-color: rgb(255, 242, 204);&quot;&gt;&amp;lt;&amp;lt;include&amp;gt;&amp;gt;&lt;/span&gt;" style="edgeLabel;html=1;align=center;verticalAlign=middle;resizable=0;points=[];fontSize=14;fontFamily=Times New Roman;" vertex="1" connectable="0" parent="44Vi0TffqXPqc9Z1R_R8-28">
          <mxGeometry x="0.463" relative="1" as="geometry">
            <mxPoint as="offset" />
          </mxGeometry>
        </mxCell>
        <mxCell id="44Vi0TffqXPqc9Z1R_R8-12" value="Consulter" style="ellipse;whiteSpace=wrap;html=1;fontFamily=Times New Roman;fontSize=14;strokeWidth=3;fillColor=#dae8fc;strokeColor=#6c8ebf;" vertex="1" parent="1">
          <mxGeometry x="439" y="360" width="111" height="50" as="geometry" />
        </mxCell>
        <mxCell id="44Vi0TffqXPqc9Z1R_R8-22" style="edgeStyle=orthogonalEdgeStyle;rounded=0;orthogonalLoop=1;jettySize=auto;html=1;exitX=1;exitY=0.5;exitDx=0;exitDy=0;entryX=1;entryY=0;entryDx=0;entryDy=0;fontFamily=Times New Roman;fontSize=14;dashed=1;" edge="1" parent="1" source="44Vi0TffqXPqc9Z1R_R8-6" target="44Vi0TffqXPqc9Z1R_R8-21">
          <mxGeometry relative="1" as="geometry">
            <mxPoint x="587" y="130" as="sourcePoint" />
          </mxGeometry>
        </mxCell>
        <mxCell id="44Vi0TffqXPqc9Z1R_R8-23" value="&lt;span style=&quot;background-color: rgb(255, 242, 204);&quot;&gt;&amp;lt;&amp;lt;include&amp;gt;&amp;gt;&lt;/span&gt;" style="edgeLabel;html=1;align=center;verticalAlign=middle;resizable=0;points=[];fontSize=14;fontFamily=Times New Roman;labelBackgroundColor=#F8CECC;" vertex="1" connectable="0" parent="44Vi0TffqXPqc9Z1R_R8-22">
          <mxGeometry x="0.2409" y="-1" relative="1" as="geometry">
            <mxPoint x="-14" as="offset" />
          </mxGeometry>
        </mxCell>
        <mxCell id="44Vi0TffqXPqc9Z1R_R8-21" value="Authentification" style="ellipse;whiteSpace=wrap;html=1;fontFamily=Times New Roman;fontSize=14;strokeWidth=3;fillColor=#dae8fc;strokeColor=#6c8ebf;" vertex="1" parent="1">
          <mxGeometry x="630" y="270" width="120" height="70" as="geometry" />
        </mxCell>
        <mxCell id="44Vi0TffqXPqc9Z1R_R8-39" value="Ajouter" style="ellipse;whiteSpace=wrap;html=1;fontFamily=Times New Roman;fontSize=14;strokeWidth=3;fillColor=#dae8fc;strokeColor=#6c8ebf;" vertex="1" parent="1">
          <mxGeometry x="338" y="194" width="109" height="60" as="geometry" />
        </mxCell>
        <mxCell id="44Vi0TffqXPqc9Z1R_R8-44" value="Modiier" style="ellipse;whiteSpace=wrap;html=1;fontFamily=Times New Roman;fontSize=14;strokeWidth=3;fillColor=#dae8fc;strokeColor=#6c8ebf;" vertex="1" parent="1">
          <mxGeometry x="455" y="255" width="109" height="60" as="geometry" />
        </mxCell>
        <mxCell id="44Vi0TffqXPqc9Z1R_R8-46" value="Supprimer" style="ellipse;whiteSpace=wrap;html=1;fontFamily=Times New Roman;fontSize=14;strokeWidth=3;fillColor=#dae8fc;strokeColor=#6c8ebf;" vertex="1" parent="1">
          <mxGeometry x="570" y="199" width="109" height="60" as="geometry" />
        </mxCell>
        <mxCell id="44Vi0TffqXPqc9Z1R_R8-47" value="" style="endArrow=diamondThin;endFill=0;endSize=24;html=1;rounded=0;fontFamily=Times New Roman;fontSize=14;edgeStyle=orthogonalEdgeStyle;" edge="1" parent="1">
          <mxGeometry width="160" relative="1" as="geometry">
            <mxPoint x="580" y="129" as="sourcePoint" />
            <mxPoint x="630" y="204" as="targetPoint" />
            <Array as="points">
              <mxPoint x="580" y="160" />
              <mxPoint x="630" y="160" />
            </Array>
          </mxGeometry>
        </mxCell>
        <mxCell id="44Vi0TffqXPqc9Z1R_R8-49" value="" style="endArrow=diamondThin;endFill=0;endSize=24;html=1;rounded=0;fontFamily=Times New Roman;fontSize=14;exitX=0.333;exitY=0.186;exitDx=0;exitDy=0;exitPerimeter=0;entryX=0.5;entryY=0;entryDx=0;entryDy=0;edgeStyle=orthogonalEdgeStyle;" edge="1" parent="1">
          <mxGeometry width="160" relative="1" as="geometry">
            <mxPoint x="471.8499999999999" y="154.98000000000002" as="sourcePoint" />
            <mxPoint x="394.5" y="194" as="targetPoint" />
            <Array as="points">
              <mxPoint x="472" y="145" />
              <mxPoint x="395" y="145" />
            </Array>
          </mxGeometry>
        </mxCell>
        <mxCell id="44Vi0TffqXPqc9Z1R_R8-51" value="" style="endArrow=diamondThin;endFill=0;endSize=24;html=1;rounded=0;fontFamily=Times New Roman;fontSize=14;exitX=0.416;exitY=1.032;exitDx=0;exitDy=0;exitPerimeter=0;entryX=0.5;entryY=0;entryDx=0;entryDy=0;" edge="1" parent="1" source="44Vi0TffqXPqc9Z1R_R8-6" target="44Vi0TffqXPqc9Z1R_R8-44">
          <mxGeometry width="160" relative="1" as="geometry">
            <mxPoint x="440" y="180" as="sourcePoint" />
            <mxPoint x="600" y="180" as="targetPoint" />
          </mxGeometry>
        </mxCell>
      </root>
    </mxGraphModel>
  </diagram>
</mxfile>
